<svg width="482" height="59" viewBox="0 0 482 59" fill="none" xmlns="http://www.w3.org/2000/svg">
<g clip-path="url(#clip0_17_5)">
<path d="M125.782 19.2815C125.782 18.3658 125.586 17.5567 125.189 16.8624C124.799 16.1794 124.215 15.607 123.431 15.1545C116.965 11.435 110.493 7.72692 104.029 4.00367C102.287 3 100.597 3.03678 98.8675 4.05485C96.2938 5.56888 83.4086 12.9337 79.5689 15.1524C77.9876 16.0658 77.2182 17.4634 77.2178 19.2798C77.2153 26.7599 77.2178 34.2399 77.2153 41.72C77.2153 42.6156 77.4037 43.4092 77.7832 44.093C78.1733 44.7966 78.7654 45.3847 79.5668 45.8474C83.4067 48.0661 96.2936 55.4304 98.8667 56.945C100.597 57.9636 102.287 58 104.03 56.9962C110.494 53.2727 116.967 49.5646 123.433 45.8452C124.235 45.3826 124.827 44.7941 125.217 44.0911C125.596 43.4071 125.785 42.6137 125.785 41.7179C125.785 41.7179 125.785 26.7618 125.782 19.2815Z" fill="#A179DC"/>
<path d="M101.574 30.427L77.7832 44.093C78.1733 44.7966 78.7655 45.3847 79.5669 45.8474C83.4067 48.0661 96.2937 55.4304 98.8668 56.945C100.597 57.9636 102.287 58 104.03 56.9961C110.494 53.2727 116.967 49.5646 123.433 45.8452C124.235 45.3826 124.827 44.7941 125.217 44.0911L101.574 30.427Z" fill="#280068"/>
<path d="M125.782 19.2814C125.782 18.3657 125.585 17.5566 125.188 16.8623L101.574 30.4271L125.217 44.091C125.596 43.407 125.784 42.6136 125.785 41.7178C125.785 41.7178 125.785 26.7617 125.782 19.2814Z" fill="#390091"/>
<path d="M115.582 25.3184V27.8728H118.142V25.3184H119.422V27.8728H121.983V29.1501H119.422V31.7043H121.983V32.9816H119.422V35.536H118.142V32.9816H115.582V35.536H114.301V32.9816H111.741V31.7043H114.301V29.1501H111.741V27.8728H114.301V25.3184H115.582ZM118.142 29.1499H115.582V31.7043H118.142V29.1499Z" fill="white"/>
<path d="M101.626 12.4894C108.305 12.4894 114.136 16.1079 117.259 21.4864L117.229 21.4346L109.371 25.9482C107.823 23.3333 104.985 21.5685 101.729 21.5321L101.626 21.5315C96.6616 21.5315 92.6367 25.5469 92.6367 30.4998C92.6351 32.0609 93.0439 33.5951 93.8223 34.9493C95.3719 37.6481 98.2849 39.4683 101.626 39.4683C104.989 39.4683 107.918 37.625 109.46 34.8974L109.422 34.9628L117.268 39.4973C114.179 44.8303 108.428 48.4375 101.828 48.5094L101.626 48.5105C94.9268 48.5105 89.0794 44.8697 85.964 39.4628C84.4432 36.8232 83.573 33.7631 83.573 30.4998C83.573 20.553 91.6555 12.4893 101.626 12.4893L101.626 12.4894Z" fill="white"/>
</g>
<path d="M194.307 17.9569C194.326 17.1256 194.126 16.3042 193.727 15.5746C193.314 14.8695 192.718 14.2888 192.003 13.8937C185.662 10.2309 179.319 6.57324 172.973 2.92067C171.265 1.93228 169.609 1.96735 167.911 2.97108C165.387 4.45475 152.75 11.7066 148.984 13.8915C147.433 14.7901 146.68 16.1664 146.68 17.9547V40.0454C146.664 40.8591 146.856 41.6633 147.238 42.3816C147.652 43.1083 148.258 43.7061 148.991 44.1086C152.757 46.3001 165.396 53.5432 167.92 55.0334C169.617 56.0371 171.274 56.0722 172.984 55.0838C179.324 51.4196 185.667 47.7604 192.014 44.1064C192.746 43.7039 193.353 43.1061 193.766 42.3794C194.149 41.6611 194.341 40.8569 194.325 40.0432V17.9569H194.307Z" fill="#004482"/>
<path d="M194.312 40.0455C194.328 40.8592 194.136 41.6635 193.753 42.3817C193.659 42.5527 193.553 42.7168 193.436 42.8726L170.494 29.0001L192.003 13.8938C192.718 14.289 193.312 14.8697 193.725 15.5747C194.125 16.3037 194.326 17.1254 194.307 17.9569C194.312 25.3205 194.312 40.0455 194.312 40.0455Z" fill="#00599C"/>
<path d="M193.725 15.5746L147.232 42.3816C146.851 41.6636 146.661 40.8602 146.678 40.0476V17.9547C146.678 16.1664 147.434 14.7901 148.982 13.8915C152.75 11.7066 165.388 4.45474 167.913 2.96668C169.607 1.96295 171.265 1.92789 172.974 2.91628C179.313 6.58054 185.656 10.2397 192.003 13.8937C192.718 14.2889 193.313 14.8696 193.725 15.5746Z" fill="#659AD2"/>
<path d="M171.414 37.9239C169.848 37.9261 168.311 37.5077 166.962 36.7124C165.614 35.9171 164.503 34.7741 163.747 33.4028C163.669 33.2654 163.596 33.1252 163.528 32.982C162.595 31.054 162.401 28.8506 162.982 26.789C163.564 24.7275 164.881 22.951 166.685 21.7959C168.488 20.6408 170.652 20.1874 172.767 20.5215C174.882 20.8556 176.801 21.954 178.161 23.6087C178.277 23.749 178.38 23.8958 178.496 24.0471C178.549 24.1194 178.601 24.1917 178.649 24.2662L186.332 19.8393C186.145 19.5383 185.949 19.2461 185.745 18.9627C185.637 18.8115 185.525 18.6668 185.42 18.5244C182.75 15.054 178.877 12.7106 174.565 11.9565C170.253 11.2023 165.815 12.0921 162.126 14.4503C158.437 16.8085 155.766 20.464 154.639 24.6957C153.511 28.9275 154.01 33.4282 156.036 37.3103C156.11 37.4505 156.187 37.5886 156.255 37.7267C157.743 40.3534 159.885 42.5505 162.472 44.1049C165.059 45.6593 168.004 46.5181 171.021 46.5979C174.038 46.6778 177.024 45.9759 179.69 44.5606C182.356 43.1452 184.61 41.0643 186.235 38.52L178.724 33.9769C177.928 35.1901 176.844 36.1862 175.568 36.8752C174.292 37.5643 172.864 37.9247 171.414 37.9239Z" fill="white"/>
<g clip-path="url(#clip1_17_5)">
<path d="M265.914 17.7658C265.914 16.81 265.708 15.9654 265.292 15.2405C264.883 14.5277 264.271 13.9302 263.45 13.4578C256.671 9.57528 249.886 5.70462 243.11 1.81812C241.283 0.770456 239.512 0.80865 237.699 1.87136C235.001 3.45196 221.493 11.1397 217.467 13.4556C215.81 14.4089 215.003 15.8678 215.003 17.7641C215 25.5721 215.003 33.3799 215 41.1881C215 42.123 215.197 42.9512 215.595 43.6652C216.004 44.3996 216.625 45.0135 217.465 45.4965C221.491 47.8125 235 55.4996 237.698 57.0806C239.512 58.1439 241.283 58.1819 243.111 57.1339C249.887 53.2472 256.672 49.3767 263.452 45.4942C264.292 45.0113 264.913 44.397 265.322 43.6632C265.719 42.9492 265.916 42.121 265.917 41.1859C265.917 41.1859 265.917 25.5741 265.914 17.7658Z" fill="#5C8DBC"/>
<path d="M240.536 29.3999L215.595 43.6651C216.004 44.3995 216.625 45.0134 217.465 45.4964C221.49 47.8124 235 55.4995 237.698 57.0805C239.512 58.1438 241.283 58.1818 243.111 57.1338C249.887 53.2471 256.672 49.3766 263.452 45.4941C264.292 45.0112 264.913 44.3969 265.322 43.6631L240.536 29.3999Z" fill="#1A4674"/>
<path d="M233.149 33.6254C234.6 36.1422 237.329 37.8398 240.458 37.8398C243.607 37.8398 246.351 36.1207 247.795 33.5769L240.536 29.3999L233.149 33.6254Z" fill="#1A4674"/>
<path d="M265.914 17.7658C265.914 16.81 265.708 15.9654 265.292 15.2405L240.536 29.4L265.322 43.6632C265.719 42.9492 265.916 42.121 265.917 41.1859C265.917 41.1859 265.917 25.5741 265.914 17.7658Z" fill="#1B598E"/>
<path d="M264.551 30.4195H262.615V32.3438H260.677V30.4195H258.741V28.4957H260.677V26.5718H262.615V28.4957H264.551V30.4195ZM257.484 30.4195H255.547V32.3438H253.611V30.4195H251.674V28.4957H253.611V26.5718H255.547V28.4957H257.484V30.4195Z" fill="white"/>
<path d="M247.795 33.577C246.351 36.1208 243.607 37.8399 240.458 37.8399C237.329 37.8399 234.6 36.1423 233.149 33.6255C232.42 32.3626 232.037 30.9318 232.038 29.476C232.038 24.8569 235.808 21.1123 240.458 21.1123C243.568 21.1123 246.282 22.7887 247.74 25.2798L255.1 21.0701C252.175 16.0542 246.713 12.6797 240.458 12.6797C231.12 12.6797 223.55 20.1998 223.55 29.476C223.55 32.5192 224.365 35.3731 225.789 37.8348C228.707 42.8772 234.183 46.2725 240.458 46.2725C246.745 46.2725 252.23 42.8635 255.143 37.8063L247.795 33.577Z" fill="white"/>
</g>
<g clip-path="url(#clip2_17_5)">
<path d="M466.322 22.2886C465.846 22.2886 465.383 22.3896 464.973 22.6278L452 30.3209C451.16 30.8177 450.65 31.7557 450.65 32.7538V48.1119C450.65 49.1092 451.16 50.046 452 50.5441L455.388 52.5524C457.034 53.3854 457.641 53.3724 458.39 53.3724C460.827 53.3724 462.218 51.8539 462.218 49.215V34.0546C462.218 33.8403 462.038 33.687 461.833 33.687H460.208C459.999 33.687 459.822 33.8403 459.822 34.0546V49.215C459.822 50.3845 458.636 51.561 456.71 50.5724L453.184 48.4512C453.06 48.3816 452.964 48.2586 452.964 48.1119V32.7534C452.964 32.6079 453.058 32.4597 453.184 32.3858L466.129 24.7215C466.188 24.6864 466.254 24.6679 466.322 24.6679C466.39 24.6679 466.456 24.6864 466.515 24.7215L479.46 32.3862C479.584 32.4625 479.681 32.6036 479.681 32.7542V48.1123C479.681 48.259 479.609 48.4091 479.488 48.4799L466.515 56.1446C466.404 56.2126 466.251 56.2126 466.129 56.1446L462.797 54.1083C462.746 54.0801 462.689 54.0653 462.631 54.0653C462.574 54.0653 462.517 54.0801 462.466 54.1083C461.546 54.6437 461.373 54.7059 460.511 55.0133C460.298 55.0895 459.975 55.2078 460.621 55.5793L464.973 58.2092C465.383 58.4523 465.849 58.5792 466.322 58.5771C466.796 58.5802 467.262 58.4533 467.672 58.2096L480.645 50.5445C481.484 50.0432 481.994 49.1096 481.994 48.1123V32.7538C481.994 31.7561 481.484 30.8197 480.645 30.3216L467.672 22.6286C467.265 22.39 466.799 22.289 466.322 22.289L466.322 22.2886Z" fill="#83CD29"/>
<path d="M469.792 33.2629C466.098 33.2629 463.898 34.8774 463.898 37.5623C463.898 40.4744 466.082 41.2748 469.627 41.6349C473.869 42.0614 474.199 42.701 474.199 43.5583C474.199 45.0454 473.045 45.6795 470.316 45.6795C466.887 45.6795 466.134 44.8005 465.882 43.0492C465.852 42.8613 465.711 42.7096 465.523 42.7096H463.843C463.637 42.7096 463.458 42.8928 463.458 43.1059C463.458 45.3477 464.645 47.9988 470.316 47.9988C474.421 47.9988 476.789 46.3442 476.789 43.4451C476.789 40.5715 474.876 39.7999 470.894 39.2593C466.871 38.7125 466.487 38.4448 466.487 37.4774C466.487 36.6786 466.813 35.6102 469.792 35.6102C472.455 35.6102 473.438 36.1998 473.841 38.0431C473.877 38.216 474.025 38.354 474.199 38.354H475.88C475.983 38.354 476.084 38.2888 476.155 38.2125C476.226 38.1311 476.275 38.0395 476.265 37.9299C476.005 34.7559 473.944 33.2629 469.792 33.2629Z" fill="#83CD29"/>
<path d="M390.055 2.15057C389.91 2.15067 389.768 2.18956 389.642 2.26339C389.517 2.33858 389.413 2.44595 389.34 2.57492C389.268 2.70389 389.23 2.85001 389.229 2.99889V24.6361C389.229 24.8484 389.133 25.0386 388.954 25.1452C388.866 25.1977 388.766 25.2254 388.664 25.2254C388.563 25.2254 388.463 25.1977 388.375 25.1452L384.932 23.1089C384.681 22.9597 384.396 22.8811 384.106 22.8811C383.816 22.8811 383.531 22.9597 383.28 23.1089L369.536 31.2544C369.022 31.559 368.71 32.1444 368.71 32.7537V49.0451C368.71 49.6536 369.022 50.211 369.536 50.5157L383.28 58.6616C383.531 58.8112 383.816 58.8899 384.106 58.8899C384.396 58.8899 384.681 58.8112 384.932 58.6616L398.676 50.5157C398.928 50.3669 399.137 50.1526 399.282 49.8944C399.427 49.6362 399.503 49.3432 399.503 49.0451V8.42962C399.502 8.12449 399.423 7.82493 399.273 7.56153C399.123 7.29812 398.908 7.08031 398.649 6.93032L390.468 2.23509C390.34 2.16158 390.198 2.14861 390.055 2.15057ZM301.642 22.4866C301.38 22.4972 301.134 22.5444 300.899 22.6843L287.154 30.8302C286.902 30.9787 286.693 31.193 286.548 31.4513C286.403 31.7096 286.327 32.0027 286.328 32.3008L286.356 54.1648C286.356 54.4687 286.508 54.7514 286.769 54.8999C286.894 54.9769 287.036 55.0176 287.182 55.0176C287.328 55.0176 287.47 54.9769 287.595 54.8999L295.748 50.0919C296.264 49.7766 296.602 49.2286 296.602 48.6209V38.4104C296.602 37.8011 296.914 37.2421 297.428 36.9394L300.898 34.8749C301.149 34.7251 301.434 34.6469 301.725 34.6484C302.008 34.6484 302.299 34.7212 302.551 34.8749L306.021 36.9394C306.273 37.0878 306.483 37.3021 306.628 37.5605C306.773 37.8189 306.849 38.1121 306.848 38.4104V48.6205C306.848 49.2282 307.188 49.7802 307.701 50.0915L315.854 54.8999C315.979 54.9769 316.122 55.0176 316.267 55.0176C316.413 55.0176 316.556 54.9769 316.681 54.8999C316.806 54.8253 316.911 54.718 316.983 54.589C317.056 54.4599 317.094 54.3135 317.094 54.1645L317.121 32.3008C317.122 32.0025 317.047 31.7091 316.902 31.4507C316.757 31.1923 316.547 30.9781 316.295 30.8302L302.551 22.6843C302.318 22.5444 302.071 22.4976 301.807 22.4866H301.642ZM425.145 22.6843C424.858 22.6843 424.577 22.759 424.319 22.9108L410.575 31.0566C410.323 31.2053 410.114 31.4196 409.969 31.6778C409.824 31.9361 409.748 32.2291 409.749 32.5272V48.8186C409.749 49.4315 410.085 49.9865 410.602 50.2896L424.236 58.2657C424.74 58.5605 425.355 58.5829 425.861 58.2932L434.124 53.5701C434.386 53.4207 434.564 53.1416 434.565 52.835C434.566 52.6857 434.529 52.5387 434.456 52.4093C434.383 52.28 434.278 52.173 434.152 52.0995L420.325 43.9536C420.066 43.8018 419.885 43.4948 419.885 43.1898V38.0991C419.885 37.7944 420.068 37.5153 420.325 37.3636L424.622 34.8179C424.747 34.7432 424.89 34.7039 425.035 34.7039C425.18 34.7039 425.323 34.7432 425.448 34.8179L429.745 37.3636C429.87 37.4379 429.975 37.545 430.048 37.674C430.12 37.8031 430.158 37.9496 430.158 38.0987V42.115C430.158 42.2641 430.196 42.4106 430.268 42.5397C430.341 42.6688 430.445 42.7759 430.571 42.8501C430.829 43.0031 431.14 43.0035 431.397 42.8501L439.633 37.9297C439.884 37.7804 440.093 37.5659 440.238 37.3077C440.383 37.0496 440.459 36.7567 440.459 36.4587V32.5276C440.459 31.9203 440.145 31.3617 439.633 31.0566L425.972 22.9108C425.72 22.7616 425.435 22.6836 425.145 22.6847V22.6843ZM384.051 34.8466C384.123 34.8466 384.207 34.8646 384.271 34.9028L388.981 37.7028C389.109 37.7787 389.202 37.9191 389.202 38.0704V43.6706C389.202 43.8227 389.11 43.9626 388.981 44.0385L384.271 46.8386C384.208 46.8755 384.137 46.8949 384.065 46.8949C383.992 46.8949 383.921 46.8755 383.858 46.8386L379.148 44.0385C379.02 43.9622 378.928 43.8227 378.928 43.6706V38.0704C378.928 37.9187 379.021 37.7795 379.148 37.7028L383.858 34.9032C383.916 34.8662 383.983 34.8467 384.051 34.847V34.8466H384.051Z" fill="#404137"/>
<path d="M342.929 22.5994C342.643 22.5994 342.359 22.6741 342.103 22.8258L328.359 30.9434C327.845 31.2473 327.532 31.8338 327.532 32.4423V48.7337C327.532 49.343 327.845 49.8996 328.359 50.2047L342.103 58.3502C342.354 58.4999 342.639 58.5787 342.929 58.5787C343.219 58.5787 343.505 58.4999 343.756 58.3502L357.499 50.2047C357.751 50.0559 357.96 49.8415 358.105 49.5832C358.25 49.3249 358.326 49.0318 358.326 48.7337V32.4423C358.326 31.833 358.013 31.2473 357.499 30.9434L343.756 22.8258C343.504 22.6768 343.219 22.5987 342.929 22.5994ZM425.118 37.1375C425.063 37.1375 425.002 37.1375 424.953 37.1658L422.309 38.7496C422.259 38.7778 422.218 38.8187 422.189 38.8684C422.16 38.9181 422.144 38.9747 422.143 39.0327V42.1437C422.143 42.2608 422.209 42.3681 422.309 42.4267L424.953 43.9822C425.052 44.0412 425.157 44.0412 425.255 43.9822L427.899 42.4263C427.949 42.398 427.99 42.3571 428.019 42.3075C428.048 42.258 428.064 42.2015 428.065 42.1437V39.0323C428.064 38.9745 428.048 38.918 428.019 38.8684C427.99 38.8189 427.949 38.7779 427.899 38.7496L425.255 37.1654C425.206 37.1359 425.173 37.1379 425.118 37.1379V37.1375Z" fill="#83CD29"/>
</g>
<path d="M28.5558 7.93759C26.7092 7.94352 25.4291 8.10621 23.8818 8.3734C19.3123 9.16902 18.4798 10.8398 18.4798 13.919V18.6251H29.1673V21.0001H18.0737H12.9081C9.77782 21.0001 7.03825 22.475 6.17019 26.0101C5.18932 30.0678 5.14538 32.6091 6.17019 36.8461C6.948 40.006 8.66157 42.3751 11.793 42.3751H16.106V36.3141C16.106 32.792 19.2956 29.3126 22.9508 29.3126H31.5435C34.5396 29.3126 37.481 27.1015 37.481 24.1149V13.919C37.481 11.0227 35.3922 8.85671 32.4721 8.37102C32.5446 8.3639 30.3869 7.93046 28.5558 7.93759ZM22.6373 12.6876C23.6122 12.6876 24.4185 13.4915 24.4185 14.4712C24.4185 15.4604 23.6122 16.2501 22.6373 16.2501C21.6433 16.2501 20.856 15.4616 20.856 14.4712C20.856 13.4951 21.6433 12.6876 22.6373 12.6876Z" fill="url(#paint0_linear_17_5)"/>
<path d="M27.4052 53.0625C29.2518 53.0566 30.5319 52.8939 32.0792 52.6267C36.6487 51.8311 37.4812 50.1603 37.4812 47.0811V42.375H26.7937V40H37.8885H43.0541C46.1844 40 48.9239 38.5251 49.792 34.9899C50.7729 30.9323 50.8168 28.391 49.792 24.154C49.013 20.9941 47.2994 18.625 44.168 18.625H39.855V24.686C39.855 28.2081 36.6654 31.6875 33.0102 31.6875H24.4175C21.4214 31.6875 18.48 33.8986 18.48 36.8852V47.0811C18.48 49.9774 20.5688 52.1434 23.4889 52.6291C23.4164 52.6362 25.5741 53.0696 27.4052 53.0625ZM33.3249 48.3125C32.35 48.3125 31.5437 47.5086 31.5437 46.5289C31.5437 45.5397 32.35 44.75 33.3249 44.75C34.3189 44.75 35.1062 45.5385 35.1062 46.5289C35.1062 47.505 34.3177 48.3125 33.3249 48.3125Z" fill="url(#paint1_linear_17_5)"/>
<defs>
<linearGradient id="paint0_linear_17_5" x1="12.4188" y1="17.4043" x2="31.2478" y2="33.204" gradientUnits="userSpaceOnUse">
<stop stop-color="#26ABE7"/>
<stop offset="1" stop-color="#086DBF"/>
</linearGradient>
<linearGradient id="paint1_linear_17_5" x1="41.9592" y1="47.0193" x2="27.9265" y2="26.9779" gradientUnits="userSpaceOnUse">
<stop stop-color="#FEB705"/>
<stop offset="1" stop-color="#FFDA1C"/>
</linearGradient>
<clipPath id="clip0_17_5">
<rect width="49" height="55" fill="white" transform="translate(77 3)"/>
</clipPath>
<clipPath id="clip1_17_5">
<rect width="51" height="57" fill="white" transform="translate(215 1)"/>
</clipPath>
<clipPath id="clip2_17_5">
<rect width="196" height="57" fill="white" transform="translate(286 2)"/>
</clipPath>
</defs>
</svg>
