<svg width="49" height="55" viewBox="0 0 49 55" fill="none" xmlns="http://www.w3.org/2000/svg">
<g clip-path="url(#clip0_15_2)">
<path d="M48.7822 16.2815C48.7819 15.3658 48.5856 14.5567 48.1886 13.8624C47.7986 13.1794 47.2146 12.607 46.4313 12.1545C39.9654 8.435 33.4932 4.72692 27.0294 1.00367C25.2868 4.74034e-06 23.5972 0.0367842 21.8675 1.05485C19.2938 2.56888 6.40855 9.93367 2.56891 12.1524C0.987632 13.0658 0.218183 14.4634 0.217802 16.2798C0.215332 23.7599 0.217802 31.2399 0.215332 38.72C0.215332 39.6156 0.403656 40.4092 0.783155 41.093C1.1733 41.7966 1.76544 42.3847 2.56682 42.8474C6.40665 45.0661 19.2936 52.4304 21.8667 53.945C23.5972 54.9636 25.2868 55 27.03 53.9961C33.494 50.2727 39.9665 46.5646 46.4334 42.8452C47.2348 42.3826 47.8269 41.7941 48.2171 41.0911C48.596 40.4071 48.7847 39.6137 48.7847 38.7179C48.7847 38.7179 48.7847 23.7618 48.7822 16.2815Z" fill="#A179DC"/>
<path d="M24.5744 27.427L0.783203 41.093C1.17334 41.7966 1.76549 42.3847 2.56687 42.8474C6.4067 45.0661 19.2937 52.4304 21.8668 53.945C23.5972 54.9636 25.2868 55 27.03 53.9961C33.494 50.2727 39.9666 46.5646 46.4335 42.8452C47.2348 42.3826 47.827 41.7941 48.2171 41.0911L24.5744 27.427Z" fill="#280068"/>
<path d="M48.7821 16.2814C48.7818 15.3657 48.5854 14.5566 48.1885 13.8623L24.5742 27.4271L48.217 41.091C48.5959 40.407 48.7842 39.6136 48.7846 38.7178C48.7846 38.7178 48.7846 23.7617 48.7821 16.2814" fill="#390091"/>
<path d="M38.5816 22.3184V24.8728H41.1421V22.3184H42.4223V24.8728H44.9829V26.1501H42.4223V28.7043H44.9829V29.9816H42.4223V32.536H41.1421V29.9816H38.5816V32.536H37.3013V29.9816H34.741V28.7043H37.3013V26.1501H34.741V24.8728H37.3013V22.3184H38.5816ZM41.1421 26.1499H38.5816V28.7043H41.1421V26.1499Z" fill="white"/>
<path d="M24.6265 9.48945C31.305 9.48945 37.1359 13.1079 40.2591 18.4864L40.2287 18.4346L32.3707 22.9482C30.8227 20.3333 27.9847 18.5685 24.7289 18.5321L24.6263 18.5315C19.6616 18.5315 15.6367 22.5469 15.6367 27.4998C15.6351 29.0609 16.0439 30.5951 16.8223 31.9493C18.3719 34.6481 21.2849 36.4683 24.6265 36.4683C27.9887 36.4683 30.9183 34.625 32.4599 31.8974L32.4224 31.9628L40.2684 36.4973C37.1794 41.8303 31.4284 45.4375 24.8275 45.5094L24.6265 45.5105C17.9268 45.5105 12.0794 41.8697 8.96401 36.4628C7.44317 33.8232 6.573 30.7631 6.573 27.4998C6.573 17.553 14.6555 9.48926 24.6263 9.48926L24.6265 9.48945Z" fill="white"/>
</g>
<defs>
<clipPath id="clip0_15_2">
<rect width="49" height="55" fill="white"/>
</clipPath>
</defs>
</svg>
