<svg width="51" height="57" viewBox="0 0 51 57" fill="none" xmlns="http://www.w3.org/2000/svg">
<g clip-path="url(#clip0_16_7)">
<path d="M50.9141 16.7658C50.9137 15.81 50.7079 14.9654 50.2918 14.2405C49.883 13.5277 49.2708 12.9302 48.4496 12.4578C41.6712 8.57528 34.8862 4.70462 28.11 0.818122C26.2831 -0.229544 24.5119 -0.19135 22.6986 0.871357C20.0006 2.45196 6.49254 10.1397 2.46732 12.4556C0.809625 13.4089 0.00298828 14.8678 0.00258984 16.7641C0 24.5721 0.00258984 32.3799 0 40.1881C0.000398438 41.123 0.197426 41.9512 0.595266 42.6652C1.00426 43.3996 1.62503 44.0135 2.46513 44.4965C6.49055 46.8125 20.0004 54.4996 22.6978 56.0806C24.5119 57.1439 26.2831 57.1819 28.1106 56.1339C34.887 52.2472 41.6724 48.3767 48.4518 44.4942C49.2919 44.0113 49.9127 43.397 50.3217 42.6632C50.7189 41.9492 50.9163 41.121 50.9167 40.1859C50.9167 40.1859 50.9167 24.5741 50.9141 16.7658" fill="#5C8DBC"/>
<path d="M25.5362 28.3999L0.595215 42.6651C1.00421 43.3995 1.62498 44.0134 2.46508 44.4964C6.4905 46.8124 20.0003 54.4995 22.6977 56.0805C24.5118 57.1438 26.2831 57.1818 28.1105 56.1338C34.8869 52.2471 41.6723 48.3766 48.4517 44.4941C49.2918 44.0112 49.9126 43.3969 50.3216 42.6631L25.5362 28.3999" fill="#1A4674"/>
<path d="M18.1489 32.6254C19.6002 35.1422 22.3285 36.8398 25.4583 36.8398C28.6073 36.8398 31.3512 35.1207 32.7951 32.5769L25.5362 28.3999L18.1489 32.6254" fill="#1A4674"/>
<path d="M50.9143 16.7658C50.9139 15.81 50.7081 14.9654 50.2919 14.2405L25.5364 28.4L50.3218 42.6632C50.719 41.9492 50.9164 41.121 50.9168 40.1859C50.9168 40.1859 50.9168 24.5741 50.9143 16.7658" fill="#1B598E"/>
<path d="M49.5513 29.4195H47.6145V31.3438H45.6773V29.4195H43.7407V27.4957H45.6773V25.5718H47.6145V27.4957H49.5513V29.4195ZM42.484 29.4195H40.5474V31.3438H38.6106V29.4195H36.6738V27.4957H38.6106V25.5718H40.5474V27.4957H42.484V29.4195Z" fill="white"/>
<path d="M32.7951 32.577C31.3511 35.1208 28.6073 36.8399 25.4583 36.8399C22.3285 36.8399 19.6002 35.1423 18.1489 32.6255C17.4198 31.3626 17.037 29.9318 17.0385 28.476C17.0385 23.8569 20.8083 20.1123 25.4583 20.1123C28.5679 20.1123 31.2818 21.7887 32.7403 24.2798L40.0996 20.0701C37.1745 15.0542 31.7133 11.6797 25.4583 11.6797C16.1197 11.6797 8.54956 19.1998 8.54956 28.476C8.54956 31.5192 9.36456 34.3731 10.789 36.8348C13.7067 41.8772 19.1835 45.2725 25.4583 45.2725C31.7446 45.2725 37.2299 41.8635 40.1435 36.8063L32.7951 32.577Z" fill="white"/>
</g>
<defs>
<clipPath id="clip0_16_7">
<rect width="51" height="57" fill="white"/>
</clipPath>
</defs>
</svg>
