<svg width="49" height="58" viewBox="0 0 49 58" fill="none" xmlns="http://www.w3.org/2000/svg">
<path d="M48.3075 17.9569C48.3257 17.1256 48.1255 16.3042 47.7269 15.5746C47.3138 14.8695 46.7182 14.2888 46.003 13.8937C39.662 10.2309 33.3188 6.57324 26.9734 2.92067C25.2648 1.93228 23.6087 1.96735 21.911 2.97108C19.3874 4.45475 6.74997 11.7066 2.98437 13.8915C1.43344 14.7901 0.679879 16.1664 0.679879 17.9547V40.0454C0.663873 40.8591 0.856166 41.6633 1.23848 42.3816C1.65178 43.1083 2.25841 43.7061 2.99094 44.1086C6.75655 46.3001 19.3962 53.5432 21.9197 55.0334C23.6174 56.0371 25.2735 56.0722 26.9844 55.0838C33.3239 51.4196 39.6671 47.7604 46.0139 44.1064C46.7464 43.7039 47.3531 43.1061 47.7664 42.3794C48.1487 41.6611 48.341 40.8569 48.325 40.0432V17.9569H48.3075Z" fill="#004482"/>
<path d="M48.3118 40.0455C48.3283 40.8592 48.136 41.6635 47.7532 42.3817C47.6592 42.5527 47.5531 42.7168 47.4356 42.8726L24.4937 29.0001L46.0029 13.8938C46.7176 14.289 47.3124 14.8697 47.7247 15.5747C48.1251 16.3037 48.3261 17.1254 48.3074 17.9569C48.3118 25.3205 48.3118 40.0455 48.3118 40.0455V40.0455Z" fill="#00599C"/>
<path d="M47.7249 15.5746L1.23204 42.3816C0.851432 41.6636 0.66065 40.8602 0.677823 40.0476V17.9547C0.677823 16.1664 1.43357 14.7901 2.98231 13.8915C6.75011 11.7066 19.3876 4.45474 21.9133 2.96668C23.6066 1.96295 25.2649 1.92789 26.9735 2.91628C33.3131 6.58054 39.6563 10.2397 46.0031 13.8937C46.7177 14.2889 47.3125 14.8696 47.7249 15.5746V15.5746Z" fill="#659AD2"/>
<path d="M25.4138 37.9239C23.8483 37.9261 22.3109 37.5077 20.9622 36.7124C19.6135 35.9171 18.503 34.7741 17.7468 33.4028C17.6694 33.2654 17.5963 33.1252 17.5277 32.982C16.5946 31.054 16.4005 28.8506 16.9824 26.789C17.5642 24.7275 18.8814 22.951 20.6847 21.7959C22.4879 20.6408 24.6519 20.1874 26.7669 20.5215C28.8819 20.8556 30.801 21.954 32.1608 23.6087C32.2769 23.749 32.3798 23.8958 32.4959 24.0471C32.5485 24.1194 32.6011 24.1917 32.6493 24.2662L40.3316 19.8393C40.1447 19.5383 39.949 19.2461 39.7446 18.9627C39.6372 18.8115 39.5255 18.6668 39.4204 18.5244C36.7502 15.054 32.8771 12.7106 28.5649 11.9565C24.2528 11.2023 19.8147 12.0921 16.126 14.4503C12.4374 16.8085 9.76589 20.464 8.63852 24.6957C7.51114 28.9275 8.00972 33.4282 10.0359 37.3103C10.1104 37.4505 10.1871 37.5886 10.255 37.7267C11.7431 40.3534 13.8847 42.5505 16.4719 44.1049C19.0592 45.6593 22.0042 46.5181 25.0211 46.5979C28.0379 46.6778 31.0242 45.9759 33.6899 44.5606C36.3557 43.1452 38.6104 41.0643 40.2352 38.52L32.7238 33.9769C31.9285 35.1901 30.8438 36.1862 29.5677 36.8752C28.2915 37.5643 26.864 37.9247 25.4138 37.9239V37.9239Z" fill="white"/>
</svg>
