<svg width="481" height="481" viewBox="0 0 481 481" fill="none" xmlns="http://www.w3.org/2000/svg">
<rect width="481" height="481" rx="100" fill="url(#paint0_linear_9_37)"/>
<path d="M390.375 348.021C390.375 370.865 371.865 389.375 349.021 389.375H133.979C111.143 389.375 92.625 370.865 92.625 348.021V132.979C92.625 110.135 111.143 91.625 133.979 91.625H349.021C371.865 91.625 390.375 110.135 390.375 132.979V348.021Z" fill="#0099EC"/>
<path d="M142.25 199.146H183.604V339.75H142.25V199.146ZM162.803 182.604H162.571C150.231 182.604 142.25 173.407 142.25 161.919C142.25 150.182 150.479 141.25 163.043 141.25C175.623 141.25 183.373 150.182 183.604 161.919C183.604 173.399 175.623 182.604 162.803 182.604ZM340.75 339.75H299.396V264.494C299.396 246.314 289.264 233.908 272.995 233.908C260.581 233.908 253.865 242.278 250.606 250.367C249.415 253.262 249.771 261.268 249.771 265.312V339.75H208.417V199.146H249.771V220.782C255.734 211.552 265.072 199.146 288.958 199.146C318.551 199.146 340.742 217.755 340.742 259.308L340.75 339.75Z" fill="white"/>
<defs>
<linearGradient id="paint0_linear_9_37" x1="5.17632" y1="7.8485" x2="566.779" y2="295.183" gradientUnits="userSpaceOnUse">
<stop stop-color="#00B5DD"/>
<stop offset="0.510417" stop-color="#7003DD"/>
<stop offset="1" stop-color="#A30092"/>
</linearGradient>
</defs>
</svg>
