<svg width="196" height="57" viewBox="0 0 196 57" fill="none" xmlns="http://www.w3.org/2000/svg">
<g clip-path="url(#clip0_16_14)">
<path d="M180.322 20.2886C179.846 20.2886 179.383 20.3896 178.973 20.6278L166 28.3209C165.16 28.8177 164.65 29.7557 164.65 30.7538V46.1119C164.65 47.1092 165.16 48.046 166 48.5441L169.388 50.5524C171.034 51.3854 171.641 51.3724 172.39 51.3724C174.827 51.3724 176.218 49.8539 176.218 47.215V32.0546C176.218 31.8403 176.038 31.687 175.833 31.687H174.208C173.999 31.687 173.822 31.8403 173.822 32.0546V47.215C173.822 48.3845 172.636 49.561 170.71 48.5724L167.184 46.4512C167.06 46.3816 166.964 46.2586 166.964 46.1119V30.7534C166.964 30.6079 167.058 30.4597 167.184 30.3858L180.129 22.7215C180.188 22.6864 180.254 22.6679 180.322 22.6679C180.39 22.6679 180.456 22.6864 180.515 22.7215L193.46 30.3862C193.584 30.4625 193.681 30.6036 193.681 30.7542V46.1123C193.681 46.259 193.609 46.4091 193.488 46.4799L180.515 54.1446C180.404 54.2126 180.251 54.2126 180.129 54.1446L176.797 52.1083C176.746 52.0801 176.689 52.0653 176.631 52.0653C176.574 52.0653 176.517 52.0801 176.466 52.1083C175.546 52.6437 175.373 52.7059 174.511 53.0133C174.298 53.0895 173.975 53.2078 174.621 53.5793L178.973 56.2092C179.383 56.4523 179.849 56.5792 180.322 56.5771C180.796 56.5802 181.262 56.4533 181.672 56.2096L194.645 48.5445C195.484 48.0432 195.994 47.1096 195.994 46.1123V30.7538C195.994 29.7561 195.484 28.8197 194.645 28.3216L181.672 20.6286C181.265 20.39 180.799 20.289 180.322 20.289L180.322 20.2886Z" fill="#83CD29"/>
<path d="M183.792 31.2629C180.098 31.2629 177.898 32.8774 177.898 35.5623C177.898 38.4744 180.082 39.2748 183.627 39.6349C187.869 40.0614 188.199 40.701 188.199 41.5583C188.199 43.0454 187.045 43.6795 184.316 43.6795C180.887 43.6795 180.134 42.8005 179.882 41.0492C179.852 40.8613 179.711 40.7096 179.523 40.7096H177.843C177.637 40.7096 177.458 40.8928 177.458 41.1059C177.458 43.3477 178.645 45.9988 184.316 45.9988C188.421 45.9988 190.789 44.3442 190.789 41.4451C190.789 38.5715 188.876 37.7999 184.894 37.2593C180.871 36.7125 180.487 36.4448 180.487 35.4774C180.487 34.6786 180.813 33.6102 183.792 33.6102C186.455 33.6102 187.438 34.1998 187.841 36.0431C187.877 36.216 188.025 36.354 188.199 36.354H189.88C189.983 36.354 190.084 36.2888 190.155 36.2125C190.226 36.1311 190.275 36.0395 190.265 35.9299C190.005 32.7559 187.944 31.2629 183.792 31.2629V31.2629Z" fill="#83CD29"/>
<path d="M104.055 0.150573C103.91 0.150672 103.768 0.189555 103.642 0.263394C103.517 0.338583 103.413 0.445952 103.34 0.574921C103.268 0.703891 103.23 0.850013 103.229 0.99889V22.6361C103.229 22.8484 103.133 23.0386 102.954 23.1452C102.866 23.1977 102.766 23.2254 102.664 23.2254C102.563 23.2254 102.463 23.1977 102.375 23.1452L98.9323 21.1089C98.6811 20.9597 98.3961 20.8811 98.106 20.8811C97.8158 20.8811 97.5308 20.9597 97.2797 21.1089L83.5357 29.2544C83.022 29.559 82.7096 30.1444 82.7096 30.7537V47.0451C82.7096 47.6536 83.0224 48.211 83.5357 48.5157L97.2797 56.6616C97.5307 56.8112 97.8158 56.89 98.106 56.89C98.3962 56.89 98.6812 56.8112 98.9323 56.6616L112.676 48.5157C112.928 48.3669 113.137 48.1526 113.282 47.8944C113.427 47.6362 113.503 47.3432 113.503 47.0451V6.42962C113.502 6.12449 113.423 5.82493 113.273 5.56153C113.123 5.29812 112.908 5.08031 112.649 4.93032L104.468 0.23509C104.34 0.16158 104.198 0.148608 104.055 0.150573V0.150573ZM15.642 20.4866C15.3802 20.4972 15.1336 20.5444 14.8986 20.6843L1.15423 28.8302C0.902464 28.9787 0.693434 29.193 0.548349 29.4513C0.403265 29.7096 0.32729 30.0027 0.328132 30.3008L0.355694 52.1648C0.355694 52.4687 0.508435 52.7514 0.768744 52.8999C0.893543 52.9769 1.03639 53.0176 1.18199 53.0176C1.32758 53.0176 1.47043 52.9769 1.59523 52.8999L9.74789 48.0919C10.2643 47.7766 10.6016 47.2286 10.6016 46.6209V36.4104C10.6016 35.8011 10.9135 35.2421 11.428 34.9394L14.8982 32.8749C15.1491 32.7251 15.4345 32.6469 15.7247 32.6484C16.008 32.6484 16.2989 32.7212 16.5508 32.8749L20.0213 34.9394C20.2733 35.0878 20.4825 35.3021 20.6277 35.5605C20.7729 35.8189 20.8488 36.1121 20.8478 36.4104V46.6205C20.8478 47.2282 21.1885 47.7802 21.7015 48.0915L29.8541 52.8999C29.9789 52.9769 30.1218 53.0176 30.2674 53.0176C30.413 53.0176 30.5558 52.9769 30.6806 52.8999C30.8062 52.8253 30.9105 52.718 30.9831 52.589C31.0557 52.4599 31.0939 52.3135 31.094 52.1645L31.1208 30.3008C31.1225 30.0025 31.0468 29.7091 30.9017 29.4507C30.7565 29.1923 30.547 28.9781 30.2947 28.8302L16.5508 20.6843C16.3184 20.5444 16.0711 20.4976 15.8074 20.4866H15.642ZM139.145 20.6843C138.858 20.6843 138.577 20.759 138.319 20.9108L124.575 29.0566C124.323 29.2053 124.114 29.4196 123.969 29.6778C123.824 29.9361 123.748 30.2291 123.749 30.5272V46.8186C123.749 47.4315 124.085 47.9865 124.602 48.2896L138.236 56.2657C138.74 56.5605 139.355 56.5829 139.861 56.2932L148.124 51.5701C148.386 51.4207 148.564 51.1416 148.565 50.835C148.566 50.6857 148.529 50.5387 148.456 50.4093C148.383 50.28 148.278 50.173 148.152 50.0995L134.325 41.9536C134.066 41.8018 133.885 41.4948 133.885 41.1898V36.0991C133.885 35.7944 134.068 35.5153 134.325 35.3636L138.622 32.8179C138.747 32.7432 138.89 32.7039 139.035 32.7039C139.18 32.7039 139.323 32.7432 139.448 32.8179L143.745 35.3636C143.87 35.4379 143.975 35.545 144.048 35.674C144.12 35.8031 144.158 35.9496 144.158 36.0987V40.115C144.158 40.2641 144.196 40.4106 144.268 40.5397C144.341 40.6688 144.445 40.7759 144.571 40.8501C144.829 41.0031 145.14 41.0035 145.397 40.8501L153.633 35.9297C153.884 35.7804 154.093 35.5659 154.238 35.3077C154.383 35.0496 154.459 34.7567 154.459 34.4587V30.5276C154.459 29.9203 154.145 29.3617 153.633 29.0566L139.972 20.9108C139.72 20.7616 139.435 20.6836 139.145 20.6847V20.6843ZM98.0507 32.8466C98.1226 32.8466 98.2068 32.8646 98.2712 32.9028L102.981 35.7028C103.109 35.7787 103.202 35.9191 103.202 36.0704V41.6706C103.202 41.8227 103.11 41.9626 102.981 42.0385L98.2712 44.8386C98.2082 44.8755 98.1371 44.8949 98.0646 44.8949C97.9922 44.8949 97.921 44.8755 97.8581 44.8386L93.1484 42.0385C93.0202 41.9622 92.9279 41.8227 92.9279 41.6706V36.0704C92.9279 35.9187 93.0206 35.7795 93.1484 35.7028L97.8581 32.9032C97.916 32.8662 97.9829 32.8467 98.051 32.847V32.8466H98.0507Z" fill="#404137"/>
<path d="M56.929 20.5994C56.6427 20.5994 56.3594 20.6741 56.1029 20.8258L42.359 28.9434C41.8448 29.2473 41.5325 29.8338 41.5325 30.4423V46.7337C41.5325 47.343 41.8452 47.8996 42.359 48.2047L56.1029 56.3502C56.3539 56.4999 56.639 56.5787 56.9292 56.5787C57.2195 56.5787 57.5045 56.4999 57.7555 56.3502L71.4995 48.2047C71.7511 48.0559 71.96 47.8415 72.105 47.5832C72.2501 47.3249 72.3262 47.0318 72.3256 46.7337V30.4423C72.3256 29.833 72.0132 29.2473 71.4995 28.9434L57.7555 20.8258C57.5043 20.6768 57.2191 20.5987 56.929 20.5994V20.5994ZM139.118 35.1375C139.063 35.1375 139.002 35.1375 138.953 35.1658L136.309 36.7496C136.259 36.7778 136.218 36.8187 136.189 36.8684C136.16 36.9181 136.144 36.9747 136.143 37.0327V40.1437C136.143 40.2608 136.209 40.3681 136.309 40.4267L138.953 41.9822C139.052 42.0412 139.157 42.0412 139.255 41.9822L141.899 40.4263C141.949 40.398 141.99 40.3571 142.019 40.3075C142.048 40.258 142.064 40.2015 142.065 40.1437V37.0323C142.064 36.9745 142.048 36.918 142.019 36.8684C141.99 36.8189 141.949 36.7779 141.899 36.7496L139.255 35.1654C139.206 35.1359 139.173 35.1379 139.118 35.1379V35.1375Z" fill="#83CD29"/>
</g>
<defs>
<clipPath id="clip0_16_14">
<rect width="196" height="57" fill="white"/>
</clipPath>
</defs>
</svg>
