<svg width="48" height="48" viewBox="0 0 48 48" fill="none" xmlns="http://www.w3.org/2000/svg">
<rect width="48" height="48" rx="10" fill="url(#paint0_linear_14_4)"/>
<path d="M7.9375 8.625H12.3047C13.1745 8.625 13.9271 8.75521 14.5625 9.01562C15.2031 9.27604 15.6953 9.66146 16.0391 10.1719C16.3828 10.6823 16.5547 11.3125 16.5547 12.0625C16.5547 12.6875 16.4531 13.2188 16.25 13.6562C16.0469 14.0938 15.7604 14.4557 15.3906 14.7422C15.026 15.0286 14.599 15.2604 14.1094 15.4375L13.2812 15.8906H9.5625L9.54688 13.9141H12.3125C12.6927 13.9141 13.0078 13.8464 13.2578 13.7109C13.5078 13.5755 13.6953 13.3854 13.8203 13.1406C13.9505 12.8906 14.0156 12.599 14.0156 12.2656C14.0156 11.9219 13.9505 11.625 13.8203 11.375C13.6901 11.125 13.4974 10.9349 13.2422 10.8047C12.9922 10.6693 12.6797 10.6016 12.3047 10.6016H10.4844V20H7.9375V8.625ZM14.2344 20L11.6797 14.9453L14.3672 14.9375L16.9609 19.8828V20H14.2344ZM22.1406 20.1562C21.4688 20.1562 20.8672 20.0495 20.3359 19.8359C19.8047 19.6224 19.3542 19.3281 18.9844 18.9531C18.6198 18.5729 18.3411 18.1354 18.1484 17.6406C17.9557 17.1458 17.8594 16.6172 17.8594 16.0547V15.7578C17.8594 15.1276 17.9479 14.5469 18.125 14.0156C18.3021 13.4844 18.5599 13.0234 18.8984 12.6328C19.2422 12.237 19.6641 11.9323 20.1641 11.7188C20.6641 11.5 21.2344 11.3906 21.875 11.3906C22.474 11.3906 23.0078 11.4896 23.4766 11.6875C23.9453 11.8802 24.3411 12.1589 24.6641 12.5234C24.987 12.8828 25.2318 13.3177 25.3984 13.8281C25.5703 14.3333 25.6562 14.901 25.6562 15.5312V16.5312H18.8438V14.9609H23.2656V14.7734C23.2656 14.4766 23.2109 14.2161 23.1016 13.9922C22.9974 13.7682 22.8411 13.5964 22.6328 13.4766C22.4297 13.3516 22.1719 13.2891 21.8594 13.2891C21.5625 13.2891 21.3151 13.3516 21.1172 13.4766C20.9193 13.6016 20.7604 13.7786 20.6406 14.0078C20.526 14.2318 20.4427 14.4948 20.3906 14.7969C20.3385 15.0938 20.3125 15.4141 20.3125 15.7578V16.0547C20.3125 16.3828 20.3568 16.6823 20.4453 16.9531C20.5339 17.224 20.6641 17.4557 20.8359 17.6484C21.0078 17.8411 21.2161 17.9922 21.4609 18.1016C21.7057 18.2109 21.9844 18.2656 22.2969 18.2656C22.6823 18.2656 23.0495 18.1927 23.3984 18.0469C23.7474 17.8958 24.0495 17.6615 24.3047 17.3438L25.4453 18.6484C25.2734 18.8984 25.0312 19.1406 24.7188 19.375C24.4115 19.6042 24.0417 19.7917 23.6094 19.9375C23.1771 20.0833 22.6875 20.1562 22.1406 20.1562ZM31.3438 17.6484C31.3438 17.4922 31.2943 17.3542 31.1953 17.2344C31.1016 17.1146 30.9297 17.0052 30.6797 16.9062C30.4349 16.8073 30.0885 16.7083 29.6406 16.6094C29.2188 16.5208 28.8255 16.4062 28.4609 16.2656C28.0964 16.1198 27.7786 15.9453 27.5078 15.7422C27.237 15.5339 27.026 15.2891 26.875 15.0078C26.724 14.7214 26.6484 14.3958 26.6484 14.0312C26.6484 13.6771 26.724 13.3411 26.875 13.0234C27.0312 12.7057 27.2552 12.4245 27.5469 12.1797C27.8438 11.9349 28.2031 11.7422 28.625 11.6016C29.0521 11.4609 29.5365 11.3906 30.0781 11.3906C30.8229 11.3906 31.4661 11.5078 32.0078 11.7422C32.5495 11.9714 32.9661 12.2943 33.2578 12.7109C33.5495 13.1224 33.6953 13.5938 33.6953 14.125H31.2578C31.2578 13.9062 31.2161 13.7161 31.1328 13.5547C31.0495 13.3932 30.9219 13.2682 30.75 13.1797C30.5781 13.0859 30.3516 13.0391 30.0703 13.0391C29.8516 13.0391 29.6589 13.0781 29.4922 13.1562C29.3307 13.2292 29.2031 13.3307 29.1094 13.4609C29.0208 13.5911 28.9766 13.7422 28.9766 13.9141C28.9766 14.0339 29.0026 14.1432 29.0547 14.2422C29.112 14.3359 29.1979 14.4245 29.3125 14.5078C29.4323 14.5859 29.5859 14.6562 29.7734 14.7188C29.9661 14.7812 30.2005 14.8411 30.4766 14.8984C31.0651 15.0078 31.6016 15.1615 32.0859 15.3594C32.5755 15.5573 32.9661 15.8307 33.2578 16.1797C33.5547 16.5286 33.7031 16.9896 33.7031 17.5625C33.7031 17.9375 33.6172 18.2812 33.4453 18.5938C33.2786 18.9062 33.0365 19.1797 32.7188 19.4141C32.401 19.6484 32.0208 19.8307 31.5781 19.9609C31.1354 20.0911 30.6354 20.1562 30.0781 20.1562C29.2812 20.1562 28.6068 20.013 28.0547 19.7266C27.5026 19.4401 27.0859 19.0807 26.8047 18.6484C26.5286 18.2109 26.3906 17.763 26.3906 17.3047H28.6797C28.6901 17.5859 28.7604 17.8151 28.8906 17.9922C29.026 18.1693 29.2005 18.2995 29.4141 18.3828C29.6276 18.4609 29.8672 18.5 30.1328 18.5C30.3984 18.5 30.6198 18.4635 30.7969 18.3906C30.974 18.3177 31.1094 18.2188 31.2031 18.0938C31.2969 17.9635 31.3438 17.8151 31.3438 17.6484ZM39.3594 11.5469V13.2578H34.3438V11.5469H39.3594ZM35.4922 9.45312H37.9375V17.3516C37.9375 17.5859 37.9661 17.7656 38.0234 17.8906C38.0807 18.0156 38.1745 18.1042 38.3047 18.1562C38.4349 18.2031 38.6016 18.2266 38.8047 18.2266C38.9505 18.2266 39.0755 18.2214 39.1797 18.2109C39.2839 18.2005 39.3802 18.1875 39.4688 18.1719V19.9375C39.2604 20.0052 39.0391 20.0573 38.8047 20.0938C38.5703 20.1354 38.3151 20.1562 38.0391 20.1562C37.513 20.1562 37.0573 20.0703 36.6719 19.8984C36.2917 19.7266 36 19.4557 35.7969 19.0859C35.5938 18.7109 35.4922 18.224 35.4922 17.625V9.45312ZM16.6484 29.7891L13.7109 39H10.9922L15.2031 27.625H16.9219L16.6484 29.7891ZM19.0859 39L16.1406 29.7891L15.8359 27.625H17.5781L21.8047 39H19.0859ZM18.9609 34.7656V36.7344H13.0312V34.7656H18.9609ZM27.2344 35.0469H24.375V33.0703H27.2344C27.6562 33.0703 27.9948 33 28.25 32.8594C28.5104 32.7188 28.7005 32.526 28.8203 32.2812C28.9453 32.0312 29.0078 31.75 29.0078 31.4375C29.0078 31.1146 28.9453 30.8151 28.8203 30.5391C28.7005 30.2578 28.5104 30.0312 28.25 29.8594C27.9948 29.6875 27.6562 29.6016 27.2344 29.6016H25.2969V39H22.75V27.625H27.2344C28.1406 27.625 28.9167 27.7891 29.5625 28.1172C30.2135 28.4453 30.7109 28.8958 31.0547 29.4688C31.4036 30.0365 31.5781 30.6875 31.5781 31.4219C31.5781 32.1562 31.4036 32.7943 31.0547 33.3359C30.7109 33.8776 30.2135 34.2995 29.5625 34.6016C28.9167 34.8984 28.1406 35.0469 27.2344 35.0469ZM35.8359 27.625V39H33.2969V27.625H35.8359Z" fill="white"/>
<defs>
<linearGradient id="paint0_linear_14_4" x1="3.5" y1="2.5" x2="43.5" y2="46.5" gradientUnits="userSpaceOnUse">
<stop offset="0.0001" stop-color="#0094FF"/>
<stop offset="1" stop-color="#FF008A"/>
</linearGradient>
</defs>
</svg>
