<svg width="1338" height="242" viewBox="0 0 1338 242" fill="none" xmlns="http://www.w3.org/2000/svg">
<rect width="1338" height="242" rx="100" fill="url(#paint0_linear_8_14)"/>
<path d="M107.068 86.0156V150H92.7861V86.0156H107.068ZM126.536 86.0156V97.1338H73.7139V86.0156H126.536ZM146.312 82.5V150H132.601V82.5H146.312ZM144.51 124.556L141.082 124.644C141.082 121.304 141.492 118.242 142.312 115.459C143.162 112.646 144.363 110.2 145.916 108.12C147.469 106.04 149.329 104.429 151.497 103.286C153.694 102.144 156.111 101.572 158.748 101.572C161.092 101.572 163.23 101.909 165.164 102.583C167.098 103.257 168.768 104.326 170.174 105.791C171.58 107.256 172.664 109.175 173.426 111.548C174.188 113.921 174.568 116.807 174.568 120.205V150H160.77V120.117C160.77 118.096 160.477 116.514 159.891 115.371C159.334 114.229 158.514 113.423 157.43 112.954C156.375 112.485 155.086 112.251 153.562 112.251C151.775 112.251 150.296 112.573 149.124 113.218C147.952 113.833 147.029 114.697 146.355 115.811C145.682 116.924 145.198 118.228 144.905 119.722C144.642 121.216 144.51 122.827 144.51 124.556ZM211.438 138.53V102.451H225.237V150H212.317L211.438 138.53ZM212.889 128.818L216.668 128.73C216.668 131.924 216.287 134.868 215.525 137.563C214.793 140.259 213.68 142.603 212.186 144.595C210.721 146.587 208.89 148.14 206.692 149.253C204.524 150.337 201.99 150.879 199.09 150.879C196.746 150.879 194.593 150.557 192.63 149.912C190.696 149.238 189.026 148.198 187.62 146.792C186.214 145.356 185.13 143.525 184.368 141.299C183.606 139.043 183.226 136.348 183.226 133.213V102.451H196.937V133.301C196.937 134.531 197.083 135.586 197.376 136.465C197.698 137.314 198.123 138.018 198.65 138.574C199.207 139.131 199.881 139.541 200.672 139.805C201.492 140.068 202.386 140.2 203.353 140.2C205.784 140.2 207.688 139.702 209.065 138.706C210.472 137.681 211.453 136.318 212.01 134.619C212.596 132.891 212.889 130.957 212.889 128.818ZM247.605 112.603V150H233.851V102.451H246.771L247.605 112.603ZM245.804 124.556L242.376 124.644C242.376 121.069 242.815 117.861 243.694 115.02C244.573 112.178 245.818 109.761 247.43 107.769C249.07 105.747 251.019 104.209 253.274 103.154C255.56 102.1 258.079 101.572 260.833 101.572C263.06 101.572 265.096 101.895 266.941 102.539C268.787 103.184 270.369 104.224 271.688 105.659C273.035 107.065 274.061 108.94 274.764 111.284C275.467 113.599 275.818 116.455 275.818 119.854V150H262.02V119.81C262.02 117.817 261.741 116.279 261.185 115.195C260.628 114.111 259.808 113.35 258.724 112.91C257.669 112.471 256.38 112.251 254.856 112.251C253.245 112.251 251.868 112.573 250.726 113.218C249.583 113.833 248.646 114.697 247.913 115.811C247.181 116.924 246.639 118.228 246.287 119.722C245.965 121.216 245.804 122.827 245.804 124.556ZM312.469 139.365V82.5H326.268V150H313.875L312.469 139.365ZM282.85 126.797V125.874C282.85 122.271 283.245 118.989 284.036 116.03C284.856 113.042 286.043 110.479 287.596 108.34C289.178 106.172 291.126 104.502 293.44 103.33C295.755 102.158 298.406 101.572 301.395 101.572C304.148 101.572 306.551 102.188 308.602 103.418C310.652 104.619 312.396 106.318 313.831 108.516C315.296 110.684 316.482 113.247 317.391 116.206C318.299 119.136 318.987 122.314 319.456 125.742V127.324C319.017 130.605 318.328 133.667 317.391 136.509C316.482 139.351 315.296 141.855 313.831 144.023C312.396 146.162 310.638 147.847 308.558 149.077C306.507 150.278 304.09 150.879 301.307 150.879C298.318 150.879 295.667 150.278 293.353 149.077C291.067 147.876 289.148 146.191 287.596 144.023C286.043 141.855 284.856 139.307 284.036 136.377C283.245 133.447 282.85 130.254 282.85 126.797ZM296.561 125.874V126.797C296.561 128.672 296.692 130.415 296.956 132.026C297.249 133.638 297.718 135.059 298.362 136.289C299.007 137.52 299.856 138.486 300.911 139.189C301.966 139.863 303.255 140.2 304.778 140.2C306.829 140.2 308.514 139.731 309.832 138.794C311.15 137.827 312.146 136.494 312.82 134.795C313.494 133.096 313.846 131.118 313.875 128.862V124.248C313.875 122.373 313.685 120.688 313.304 119.194C312.923 117.7 312.352 116.44 311.59 115.415C310.857 114.39 309.935 113.613 308.821 113.086C307.708 112.529 306.39 112.251 304.866 112.251C303.372 112.251 302.098 112.603 301.043 113.306C299.988 113.979 299.124 114.932 298.45 116.162C297.806 117.393 297.322 118.843 297 120.513C296.707 122.153 296.561 123.94 296.561 125.874ZM357.82 150.879C354.041 150.879 350.657 150.278 347.669 149.077C344.681 147.876 342.146 146.221 340.066 144.111C338.016 141.973 336.448 139.512 335.364 136.729C334.28 133.945 333.738 130.972 333.738 127.808V126.138C333.738 122.593 334.236 119.326 335.232 116.338C336.229 113.35 337.679 110.757 339.583 108.56C341.517 106.333 343.89 104.619 346.702 103.418C349.515 102.188 352.723 101.572 356.326 101.572C359.695 101.572 362.698 102.129 365.335 103.242C367.972 104.326 370.198 105.894 372.015 107.944C373.831 109.966 375.208 112.412 376.146 115.283C377.112 118.125 377.596 121.318 377.596 124.863V130.488H339.275V121.655H364.148V120.601C364.148 118.931 363.841 117.466 363.226 116.206C362.64 114.946 361.761 113.979 360.589 113.306C359.446 112.603 357.996 112.251 356.238 112.251C354.568 112.251 353.177 112.603 352.063 113.306C350.95 114.009 350.057 115.005 349.383 116.294C348.738 117.554 348.27 119.033 347.977 120.732C347.684 122.402 347.537 124.204 347.537 126.138V127.808C347.537 129.653 347.786 131.338 348.284 132.861C348.782 134.385 349.515 135.688 350.481 136.772C351.448 137.856 352.62 138.706 353.997 139.321C355.374 139.937 356.941 140.244 358.699 140.244C360.867 140.244 362.933 139.834 364.896 139.014C366.858 138.164 368.558 136.846 369.993 135.059L376.409 142.397C375.442 143.804 374.08 145.166 372.322 146.484C370.594 147.773 368.514 148.828 366.082 149.648C363.65 150.469 360.896 150.879 357.82 150.879ZM398.03 113.525V150H384.319V102.451H397.195L398.03 113.525ZM412.225 102.1L412.005 114.888C411.419 114.8 410.657 114.727 409.72 114.668C408.782 114.58 407.977 114.536 407.303 114.536C405.545 114.536 404.021 114.756 402.732 115.195C401.473 115.605 400.418 116.221 399.568 117.041C398.748 117.861 398.133 118.887 397.723 120.117C397.312 121.318 397.107 122.71 397.107 124.292L394.515 123.018C394.515 119.883 394.822 117.012 395.438 114.404C396.053 111.797 396.946 109.541 398.118 107.637C399.29 105.703 400.726 104.209 402.425 103.154C404.124 102.1 406.058 101.572 408.226 101.572C408.929 101.572 409.646 101.616 410.379 101.704C411.111 101.792 411.727 101.924 412.225 102.1ZM438.812 150H424.749L424.837 138.926H438.812C442.005 138.926 444.7 138.193 446.897 136.729C449.095 135.234 450.765 133.037 451.907 130.137C453.05 127.207 453.621 123.647 453.621 119.458V116.514C453.621 113.35 453.299 110.566 452.654 108.164C452.01 105.732 451.058 103.696 449.798 102.056C448.538 100.415 446.971 99.1846 445.096 98.3643C443.25 97.5439 441.126 97.1338 438.724 97.1338H424.485V86.0156H438.724C443.06 86.0156 447.015 86.748 450.589 88.2129C454.192 89.6777 457.298 91.7725 459.905 94.4971C462.542 97.2217 464.578 100.444 466.014 104.165C467.449 107.886 468.167 112.031 468.167 116.602V119.458C468.167 123.999 467.449 128.145 466.014 131.895C464.578 135.615 462.542 138.838 459.905 141.562C457.298 144.258 454.207 146.338 450.633 147.803C447.059 149.268 443.118 150 438.812 150ZM432.879 86.0156V150H418.553V86.0156H432.879ZM489.964 113.525V150H476.253V102.451H489.129L489.964 113.525ZM504.158 102.1L503.938 114.888C503.353 114.8 502.591 114.727 501.653 114.668C500.716 114.58 499.91 114.536 499.236 114.536C497.479 114.536 495.955 114.756 494.666 115.195C493.406 115.605 492.352 116.221 491.502 117.041C490.682 117.861 490.066 118.887 489.656 120.117C489.246 121.318 489.041 122.71 489.041 124.292L486.448 123.018C486.448 119.883 486.756 117.012 487.371 114.404C487.986 111.797 488.88 109.541 490.052 107.637C491.224 105.703 492.659 104.209 494.358 103.154C496.058 102.1 497.991 101.572 500.159 101.572C500.862 101.572 501.58 101.616 502.312 101.704C503.045 101.792 503.66 101.924 504.158 102.1ZM533.558 138.662V118.271C533.558 116.836 533.338 115.605 532.898 114.58C532.459 113.555 531.771 112.749 530.833 112.163C529.896 111.577 528.68 111.284 527.186 111.284C525.926 111.284 524.827 111.504 523.89 111.943C522.981 112.383 522.278 113.013 521.78 113.833C521.312 114.653 521.077 115.664 521.077 116.865H507.366C507.366 114.727 507.85 112.734 508.816 110.889C509.783 109.043 511.16 107.417 512.947 106.011C514.764 104.604 516.932 103.521 519.451 102.759C521.971 101.968 524.798 101.572 527.933 101.572C531.653 101.572 534.964 102.202 537.864 103.462C540.794 104.692 543.108 106.553 544.808 109.043C546.507 111.504 547.356 114.609 547.356 118.359V138.267C547.356 141.138 547.518 143.394 547.84 145.034C548.191 146.646 548.689 148.052 549.334 149.253V150H535.491C534.847 148.623 534.363 146.924 534.041 144.902C533.719 142.852 533.558 140.771 533.558 138.662ZM535.271 120.996L535.359 128.555H528.548C527.024 128.555 525.706 128.745 524.593 129.126C523.509 129.507 522.63 130.034 521.956 130.708C521.282 131.353 520.784 132.114 520.462 132.993C520.169 133.843 520.022 134.78 520.022 135.806C520.022 136.772 520.257 137.651 520.726 138.442C521.194 139.204 521.839 139.805 522.659 140.244C523.479 140.684 524.432 140.903 525.516 140.903C527.303 140.903 528.826 140.552 530.086 139.849C531.375 139.146 532.371 138.296 533.074 137.3C533.777 136.274 534.129 135.322 534.129 134.443L537.425 140.156C536.897 141.328 536.253 142.544 535.491 143.804C534.729 145.034 533.763 146.191 532.591 147.275C531.419 148.33 529.998 149.194 528.328 149.868C526.688 150.542 524.71 150.879 522.396 150.879C519.407 150.879 516.697 150.278 514.266 149.077C511.834 147.847 509.886 146.162 508.421 144.023C506.985 141.885 506.268 139.424 506.268 136.641C506.268 134.15 506.722 131.938 507.63 130.005C508.538 128.071 509.9 126.431 511.717 125.083C513.562 123.735 515.877 122.725 518.66 122.051C521.443 121.348 524.695 120.996 528.416 120.996H535.271ZM586.336 102.451H598.816V148.286C598.816 152.651 597.82 156.357 595.828 159.404C593.865 162.451 591.126 164.766 587.61 166.348C584.095 167.93 579.979 168.721 575.262 168.721C573.211 168.721 571.072 168.442 568.846 167.886C566.619 167.358 564.524 166.553 562.562 165.469C560.599 164.414 558.958 163.066 557.64 161.426L563.484 153.34C564.832 154.863 566.443 156.094 568.318 157.031C570.193 157.998 572.332 158.481 574.734 158.481C576.932 158.481 578.792 158.086 580.315 157.295C581.839 156.504 582.996 155.347 583.787 153.823C584.607 152.3 585.018 150.454 585.018 148.286V113.569L586.336 102.451ZM554.563 126.797V125.874C554.563 122.271 555.003 118.989 555.882 116.03C556.761 113.042 558.035 110.479 559.705 108.34C561.404 106.172 563.44 104.502 565.813 103.33C568.216 102.158 570.911 101.572 573.899 101.572C577.122 101.572 579.788 102.188 581.897 103.418C584.007 104.619 585.721 106.318 587.039 108.516C588.357 110.684 589.397 113.247 590.159 116.206C590.921 119.136 591.536 122.314 592.005 125.742V127.324C591.536 130.605 590.862 133.667 589.983 136.509C589.104 139.351 587.962 141.855 586.556 144.023C585.149 146.162 583.392 147.847 581.282 149.077C579.202 150.278 576.712 150.879 573.812 150.879C570.853 150.879 568.187 150.278 565.813 149.077C563.44 147.876 561.404 146.191 559.705 144.023C558.035 141.855 556.761 139.307 555.882 136.377C555.003 133.447 554.563 130.254 554.563 126.797ZM568.274 125.874V126.797C568.274 128.672 568.45 130.415 568.802 132.026C569.183 133.638 569.739 135.059 570.472 136.289C571.233 137.52 572.171 138.486 573.284 139.189C574.427 139.863 575.76 140.2 577.283 140.2C579.51 140.2 581.312 139.731 582.688 138.794C584.095 137.827 585.12 136.494 585.765 134.795C586.438 133.096 586.79 131.118 586.819 128.862V124.248C586.819 122.373 586.629 120.688 586.248 119.194C585.867 117.7 585.296 116.44 584.534 115.415C583.802 114.39 582.835 113.613 581.634 113.086C580.462 112.529 579.041 112.251 577.371 112.251C575.877 112.251 574.559 112.603 573.416 113.306C572.273 113.979 571.321 114.932 570.56 116.162C569.798 117.393 569.227 118.843 568.846 120.513C568.465 122.153 568.274 123.94 568.274 125.874ZM620.35 82.5V89.4434C620.35 91.377 619.969 93.3691 619.207 95.4199C618.475 97.4414 617.508 99.3604 616.307 101.177C615.105 102.964 613.787 104.487 612.352 105.747L606.155 102.275C607.181 100.547 608.074 98.6719 608.836 96.6504C609.598 94.5996 609.979 92.1973 609.979 89.4434V82.5H620.35ZM645.223 136.772C645.223 135.894 644.944 135.117 644.388 134.443C643.86 133.77 642.894 133.154 641.487 132.598C640.11 132.041 638.162 131.484 635.643 130.928C633.27 130.43 631.058 129.785 629.007 128.994C626.956 128.174 625.169 127.192 623.646 126.05C622.122 124.878 620.936 123.501 620.086 121.919C619.236 120.308 618.812 118.477 618.812 116.426C618.812 114.434 619.236 112.544 620.086 110.757C620.965 108.97 622.225 107.388 623.865 106.011C625.535 104.634 627.557 103.55 629.93 102.759C632.332 101.968 635.057 101.572 638.104 101.572C642.293 101.572 645.911 102.231 648.958 103.55C652.005 104.839 654.349 106.655 655.989 108.999C657.63 111.313 658.45 113.965 658.45 116.953H644.739C644.739 115.723 644.505 114.653 644.036 113.745C643.567 112.837 642.85 112.134 641.883 111.636C640.916 111.108 639.642 110.845 638.06 110.845C636.829 110.845 635.745 111.064 634.808 111.504C633.899 111.914 633.182 112.485 632.654 113.218C632.156 113.95 631.907 114.8 631.907 115.767C631.907 116.44 632.054 117.056 632.347 117.612C632.669 118.14 633.152 118.638 633.797 119.106C634.471 119.546 635.335 119.941 636.39 120.293C637.474 120.645 638.792 120.981 640.345 121.304C643.655 121.919 646.673 122.783 649.397 123.896C652.151 125.01 654.349 126.548 655.989 128.511C657.659 130.474 658.494 133.066 658.494 136.289C658.494 138.398 658.011 140.332 657.044 142.09C656.106 143.848 654.744 145.386 652.957 146.704C651.17 148.022 649.031 149.048 646.541 149.78C644.051 150.513 641.238 150.879 638.104 150.879C633.621 150.879 629.827 150.073 626.722 148.462C623.616 146.851 621.272 144.829 619.69 142.397C618.138 139.937 617.361 137.417 617.361 134.839H630.237C630.296 136.421 630.691 137.71 631.424 138.706C632.186 139.702 633.167 140.435 634.368 140.903C635.569 141.343 636.917 141.562 638.411 141.562C639.905 141.562 641.15 141.357 642.146 140.947C643.143 140.537 643.904 139.98 644.432 139.277C644.959 138.545 645.223 137.71 645.223 136.772ZM740.804 116.206V142.002C739.749 143.203 738.138 144.492 735.97 145.869C733.831 147.246 731.092 148.433 727.752 149.429C724.412 150.396 720.428 150.879 715.799 150.879C711.609 150.879 707.801 150.205 704.373 148.857C700.945 147.48 698.001 145.474 695.54 142.837C693.079 140.171 691.175 136.919 689.827 133.081C688.509 129.243 687.85 124.849 687.85 119.897V116.118C687.85 111.167 688.509 106.772 689.827 102.935C691.146 99.0967 693.006 95.8594 695.408 93.2227C697.811 90.5566 700.667 88.5352 703.978 87.1582C707.288 85.7812 710.95 85.0928 714.964 85.0928C720.677 85.0928 725.35 86.0156 728.982 87.8613C732.615 89.6777 735.369 92.1973 737.244 95.4199C739.148 98.6426 740.32 102.349 740.76 106.538H726.961C726.668 104.399 726.082 102.554 725.203 101.001C724.354 99.4482 723.138 98.2617 721.556 97.4414C719.974 96.5918 717.923 96.167 715.403 96.167C713.382 96.167 711.551 96.5918 709.91 97.4414C708.299 98.2617 706.937 99.5068 705.823 101.177C704.71 102.847 703.86 104.927 703.274 107.417C702.688 109.878 702.396 112.749 702.396 116.03V119.897C702.396 123.179 702.688 126.064 703.274 128.555C703.89 131.045 704.783 133.125 705.955 134.795C707.127 136.436 708.606 137.681 710.394 138.53C712.21 139.38 714.319 139.805 716.722 139.805C718.597 139.805 720.179 139.658 721.468 139.365C722.757 139.043 723.812 138.647 724.632 138.179C725.452 137.681 726.067 137.227 726.478 136.816V126.182H715.096V116.206H740.804ZM764.358 102.451V150H750.604V102.451H764.358ZM749.769 90.1465C749.769 88.1543 750.472 86.5283 751.878 85.2686C753.284 83.9795 755.13 83.335 757.415 83.335C759.7 83.335 761.546 83.9795 762.952 85.2686C764.388 86.5283 765.105 88.1543 765.105 90.1465C765.105 92.1094 764.388 93.7354 762.952 95.0244C761.546 96.2842 759.7 96.9141 757.415 96.9141C755.13 96.9141 753.284 96.2842 751.878 95.0244C750.472 93.7354 749.769 92.1094 749.769 90.1465ZM798.416 102.451V112.075H770.203V102.451H798.416ZM776.663 90.6738H790.418V135.103C790.418 136.421 790.579 137.432 790.901 138.135C791.224 138.838 791.751 139.336 792.483 139.629C793.216 139.893 794.153 140.024 795.296 140.024C796.116 140.024 796.819 139.995 797.405 139.937C797.991 139.878 798.533 139.805 799.031 139.717V149.648C797.859 150.029 796.614 150.322 795.296 150.527C793.978 150.762 792.542 150.879 790.989 150.879C788.03 150.879 785.467 150.396 783.299 149.429C781.16 148.462 779.52 146.938 778.377 144.858C777.234 142.749 776.663 140.01 776.663 136.641V90.6738ZM848.646 111.768V122.842H815.511V111.768H848.646ZM820.037 86.0156V150H805.711V86.0156H820.037ZM858.533 86.0156V150H844.251V86.0156H858.533ZM896.37 138.53V102.451H910.169V150H897.249L896.37 138.53ZM897.82 128.818L901.6 128.73C901.6 131.924 901.219 134.868 900.457 137.563C899.725 140.259 898.611 142.603 897.117 144.595C895.652 146.587 893.821 148.14 891.624 149.253C889.456 150.337 886.922 150.879 884.021 150.879C881.678 150.879 879.524 150.557 877.562 149.912C875.628 149.238 873.958 148.198 872.552 146.792C871.146 145.356 870.062 143.525 869.3 141.299C868.538 139.043 868.157 136.348 868.157 133.213V102.451H881.868V133.301C881.868 134.531 882.015 135.586 882.308 136.465C882.63 137.314 883.055 138.018 883.582 138.574C884.139 139.131 884.812 139.541 885.604 139.805C886.424 140.068 887.317 140.2 888.284 140.2C890.716 140.2 892.62 139.702 893.997 138.706C895.403 137.681 896.385 136.318 896.941 134.619C897.527 132.891 897.82 130.957 897.82 128.818ZM919.134 82.5H932.845V138.706L931.438 150H919.134V82.5ZM962.508 125.698V126.621C962.508 130.225 962.127 133.506 961.365 136.465C960.633 139.424 959.505 141.987 957.981 144.155C956.458 146.294 954.539 147.949 952.225 149.121C949.91 150.293 947.186 150.879 944.051 150.879C941.15 150.879 938.66 150.278 936.58 149.077C934.5 147.847 932.757 146.147 931.351 143.979C929.944 141.812 928.802 139.277 927.923 136.377C927.073 133.477 926.414 130.356 925.945 127.017V125.435C926.414 122.095 927.073 118.975 927.923 116.074C928.802 113.174 929.944 110.64 931.351 108.472C932.757 106.304 934.485 104.619 936.536 103.418C938.616 102.188 941.092 101.572 943.963 101.572C947.127 101.572 949.866 102.173 952.181 103.374C954.524 104.575 956.458 106.26 957.981 108.428C959.505 110.566 960.633 113.115 961.365 116.074C962.127 119.004 962.508 122.212 962.508 125.698ZM948.797 126.621V125.698C948.797 123.882 948.665 122.168 948.401 120.557C948.167 118.945 947.742 117.524 947.127 116.294C946.541 115.034 945.706 114.053 944.622 113.35C943.567 112.617 942.205 112.251 940.535 112.251C938.895 112.251 937.503 112.529 936.36 113.086C935.218 113.643 934.295 114.434 933.592 115.459C932.889 116.455 932.376 117.671 932.054 119.106C931.731 120.542 931.556 122.139 931.526 123.896V128.555C931.556 130.898 931.863 132.949 932.449 134.707C933.035 136.465 933.987 137.827 935.306 138.794C936.624 139.731 938.396 140.2 940.623 140.2C942.322 140.2 943.699 139.878 944.754 139.233C945.838 138.56 946.658 137.622 947.215 136.421C947.801 135.22 948.211 133.784 948.445 132.114C948.68 130.444 948.797 128.613 948.797 126.621ZM1018.14 127.764H1002.06V116.646H1018.14C1020.52 116.646 1022.42 116.25 1023.86 115.459C1025.32 114.668 1026.39 113.584 1027.06 112.207C1027.77 110.801 1028.12 109.219 1028.12 107.461C1028.12 105.645 1027.77 103.96 1027.06 102.407C1026.39 100.825 1025.32 99.5508 1023.86 98.584C1022.42 97.6172 1020.52 97.1338 1018.14 97.1338H1007.24V150H992.918V86.0156H1018.14C1023.24 86.0156 1027.61 86.9385 1031.24 88.7842C1034.9 90.6299 1037.7 93.1641 1039.63 96.3867C1041.59 99.5801 1042.58 103.242 1042.58 107.373C1042.58 111.504 1041.59 115.093 1039.63 118.14C1037.7 121.187 1034.9 123.56 1031.24 125.259C1027.61 126.929 1023.24 127.764 1018.14 127.764ZM1064.33 113.525V150H1050.62V102.451H1063.49L1064.33 113.525ZM1078.52 102.1L1078.3 114.888C1077.72 114.8 1076.96 114.727 1076.02 114.668C1075.08 114.58 1074.28 114.536 1073.6 114.536C1071.84 114.536 1070.32 114.756 1069.03 115.195C1067.77 115.605 1066.72 116.221 1065.87 117.041C1065.05 117.861 1064.43 118.887 1064.02 120.117C1063.61 121.318 1063.41 122.71 1063.41 124.292L1060.81 123.018C1060.81 119.883 1061.12 117.012 1061.74 114.404C1062.35 111.797 1063.25 109.541 1064.42 107.637C1065.59 105.703 1067.02 104.209 1068.72 103.154C1070.42 102.1 1072.36 101.572 1074.52 101.572C1075.23 101.572 1075.95 101.616 1076.68 101.704C1077.41 101.792 1078.03 101.924 1078.52 102.1ZM1080.68 126.709V125.786C1080.68 122.3 1081.17 119.092 1082.17 116.162C1083.17 113.203 1084.63 110.64 1086.57 108.472C1088.5 106.304 1090.87 104.619 1093.68 103.418C1096.5 102.188 1099.72 101.572 1103.35 101.572C1107.04 101.572 1110.3 102.188 1113.11 103.418C1115.95 104.619 1118.34 106.304 1120.27 108.472C1122.21 110.64 1123.67 113.203 1124.67 116.162C1125.66 119.092 1126.16 122.3 1126.16 125.786V126.709C1126.16 130.166 1125.66 133.374 1124.67 136.333C1123.67 139.263 1122.21 141.826 1120.27 144.023C1118.34 146.191 1115.96 147.876 1113.15 149.077C1110.34 150.278 1107.1 150.879 1103.44 150.879C1099.81 150.879 1096.57 150.278 1093.73 149.077C1090.89 147.876 1088.5 146.191 1086.57 144.023C1084.63 141.826 1083.17 139.263 1082.17 136.333C1081.17 133.374 1080.68 130.166 1080.68 126.709ZM1094.43 125.786V126.709C1094.43 128.584 1094.58 130.342 1094.87 131.982C1095.19 133.623 1095.71 135.059 1096.41 136.289C1097.11 137.52 1098.04 138.486 1099.18 139.189C1100.35 139.863 1101.77 140.2 1103.44 140.2C1105.11 140.2 1106.52 139.863 1107.66 139.189C1108.8 138.486 1109.72 137.52 1110.43 136.289C1111.13 135.059 1111.63 133.623 1111.92 131.982C1112.24 130.342 1112.41 128.584 1112.41 126.709V125.786C1112.41 123.94 1112.24 122.212 1111.92 120.601C1111.63 118.96 1111.13 117.51 1110.43 116.25C1109.72 114.99 1108.79 114.009 1107.62 113.306C1106.47 112.603 1105.05 112.251 1103.35 112.251C1101.71 112.251 1100.32 112.603 1099.18 113.306C1098.04 114.009 1097.11 114.99 1096.41 116.25C1095.71 117.51 1095.19 118.96 1094.87 120.601C1094.58 122.212 1094.43 123.94 1094.43 125.786ZM1150.42 150H1136.62V100.737C1136.62 96.6064 1137.47 93.1201 1139.17 90.2783C1140.9 87.4365 1143.37 85.2832 1146.59 83.8184C1149.82 82.3242 1153.7 81.5771 1158.24 81.5771C1160.85 81.5771 1163.35 81.8115 1165.75 82.2803C1168.19 82.749 1170.69 83.3643 1173.27 84.126L1171.34 95.0684C1169.67 94.5703 1167.89 94.1162 1166.02 93.7061C1164.14 93.2959 1161.84 93.0908 1159.12 93.0908C1156.31 93.0908 1154.15 93.75 1152.66 95.0684C1151.17 96.3574 1150.42 98.2471 1150.42 100.737V150ZM1159.78 102.451V112.075H1129.63V102.451H1159.78ZM1179.6 102.451V150H1165.84V102.451H1179.6ZM1203.9 82.5V150H1190.14V82.5H1203.9ZM1236.2 150.879C1232.42 150.879 1229.04 150.278 1226.05 149.077C1223.06 147.876 1220.53 146.221 1218.45 144.111C1216.39 141.973 1214.83 139.512 1213.74 136.729C1212.66 133.945 1212.12 130.972 1212.12 127.808V126.138C1212.12 122.593 1212.62 119.326 1213.61 116.338C1214.61 113.35 1216.06 110.757 1217.96 108.56C1219.9 106.333 1222.27 104.619 1225.08 103.418C1227.89 102.188 1231.1 101.572 1234.71 101.572C1238.07 101.572 1241.08 102.129 1243.71 103.242C1246.35 104.326 1248.58 105.894 1250.39 107.944C1252.21 109.966 1253.59 112.412 1254.52 115.283C1255.49 118.125 1255.97 121.318 1255.97 124.863V130.488H1217.65V121.655H1242.53V120.601C1242.53 118.931 1242.22 117.466 1241.6 116.206C1241.02 114.946 1240.14 113.979 1238.97 113.306C1237.83 112.603 1236.38 112.251 1234.62 112.251C1232.95 112.251 1231.56 112.603 1230.44 113.306C1229.33 114.009 1228.44 115.005 1227.76 116.294C1227.12 117.554 1226.65 119.033 1226.36 120.732C1226.06 122.402 1225.92 124.204 1225.92 126.138V127.808C1225.92 129.653 1226.17 131.338 1226.66 132.861C1227.16 134.385 1227.89 135.688 1228.86 136.772C1229.83 137.856 1231 138.706 1232.38 139.321C1233.75 139.937 1235.32 140.244 1237.08 140.244C1239.25 140.244 1241.31 139.834 1243.27 139.014C1245.24 138.164 1246.94 136.846 1248.37 135.059L1254.79 142.397C1253.82 143.804 1252.46 145.166 1250.7 146.484C1248.97 147.773 1246.89 148.828 1244.46 149.648C1242.03 150.469 1239.28 150.879 1236.2 150.879Z" fill="#F7F7F7"/>
<defs>
<linearGradient id="paint0_linear_8_14" x1="14.399" y1="3.94872" x2="233.367" y2="623.362" gradientUnits="userSpaceOnUse">
<stop stop-color="#00B5DD"/>
<stop offset="0.510417" stop-color="#7003DD"/>
<stop offset="1" stop-color="#A30092"/>
</linearGradient>
</defs>
</svg>
