<svg width="481" height="481" viewBox="0 0 481 481" fill="none" xmlns="http://www.w3.org/2000/svg">
<rect width="481" height="481" rx="100" fill="url(#paint0_linear_9_22)"/>
<g filter="url(#filter0_d_9_22)">
<path d="M306.927 80.0713V80H325.448L332.216 81.3538C336.727 82.2327 340.823 83.3846 344.504 84.8097C348.184 86.2347 351.746 87.8975 355.189 89.7974C358.632 91.6974 361.755 93.6334 364.557 95.6047C367.335 97.5524 369.828 99.6188 372.036 101.804C374.221 104.013 377.628 104.583 382.258 103.514C386.889 102.445 391.875 100.96 397.218 99.0605C402.56 97.1605 407.844 95.0229 413.068 92.6476C418.292 90.2724 421.474 88.7643 422.614 88.123C423.729 87.4582 424.323 87.1019 424.394 87.0542L424.465 86.9473L424.821 86.7691L425.178 86.591L425.534 86.4129L425.89 86.2347L425.961 86.1279L426.068 86.0566L426.175 85.9853L426.246 85.8785L426.602 85.7716L426.959 85.7003L426.888 86.2347L426.78 86.7691L426.602 87.3036L426.424 87.838L426.246 88.1942L426.068 88.5505L425.89 89.0849C425.771 89.4412 425.653 89.9161 425.534 90.51C425.415 91.1039 424.287 93.4788 422.15 97.6354C420.013 101.792 417.342 106.008 414.136 110.283C410.931 114.558 408.058 117.788 405.517 119.974C402.953 122.182 401.255 123.726 400.423 124.605C399.592 125.508 398.583 126.339 397.396 127.099L395.615 128.275L395.259 128.453L394.903 128.631L394.832 128.738L394.725 128.809L394.618 128.88L394.546 128.987L394.19 129.165L393.834 129.344L393.763 129.45L393.656 129.522L393.549 129.593L393.478 129.7L393.407 129.807L393.3 129.878L393.193 129.949L393.122 130.056H394.903L404.876 127.918C411.524 126.493 417.876 124.771 423.931 122.752L433.548 119.546L434.616 119.19L435.151 119.012L435.507 118.834L435.863 118.655L436.219 118.477L436.575 118.299L437.288 118.192L438 118.121V118.834L437.822 118.905L437.644 119.012L437.573 119.119L437.466 119.19L437.359 119.261L437.288 119.368L437.217 119.475L437.11 119.546L437.003 119.617L436.931 119.724L436.861 119.831L436.753 119.902L436.575 120.259L436.397 120.615L436.29 120.686C436.243 120.757 434.735 122.776 431.767 126.743C428.799 130.733 427.196 132.752 426.959 132.799C426.721 132.871 426.389 133.227 425.961 133.868C425.558 134.533 423.041 137.181 418.41 141.813C413.78 146.445 409.245 150.565 404.805 154.176C400.341 157.81 398.085 162.275 398.037 167.571C397.966 172.844 397.693 178.806 397.218 185.456C396.743 192.107 395.853 199.291 394.546 207.011C393.241 214.73 391.222 223.459 388.491 233.196C385.761 242.934 382.436 252.435 378.518 261.698C374.601 270.961 370.505 279.274 366.23 286.637C361.956 294 358.038 300.235 354.477 305.341C350.915 310.448 347.294 315.257 343.613 319.77C339.933 324.283 335.279 329.366 329.651 335.019C324 340.648 320.913 343.736 320.391 344.282C319.845 344.804 317.518 346.752 313.409 350.125C309.325 353.521 304.932 356.917 300.231 360.314C295.553 363.687 291.255 366.501 287.337 368.757C283.419 371.014 278.694 373.591 273.161 376.489C267.653 379.41 261.693 382.118 255.281 384.612C248.87 387.105 242.103 389.421 234.979 391.559C227.856 393.696 220.97 395.359 214.321 396.547C207.673 397.734 200.133 398.744 191.704 399.575L179.06 400.822V401H155.908V400.822L152.881 400.644C150.862 400.525 149.2 400.406 147.894 400.287C146.588 400.169 141.661 399.515 133.113 398.328C124.564 397.141 117.857 395.953 112.989 394.765C108.121 393.578 100.879 391.321 91.2619 387.996C81.6452 384.671 73.4175 381.31 66.5789 377.914C59.7642 374.541 55.49 372.403 53.7565 371.501C52.0469 370.622 50.1235 369.53 47.9865 368.223L44.7809 366.264L44.71 366.157L44.6028 366.085L44.4959 366.014L44.4247 365.907L44.0685 365.729L43.7124 365.551L43.6415 365.444L43.5343 365.373L43.4274 365.302L43.3562 365.195L43.2853 365.088L43.1781 365.017H43V364.304L43.3562 364.375L43.7124 364.482L45.3151 364.66C46.3837 364.779 49.2926 364.957 54.0415 365.195C58.7907 365.432 63.8363 365.432 69.179 365.195C74.5216 364.957 79.9833 364.423 85.5631 363.592C91.1433 362.76 97.7326 361.335 105.331 359.316C112.93 357.297 119.911 354.899 126.274 352.12C132.614 349.317 137.126 347.227 139.809 345.849C142.468 344.495 146.529 341.978 151.99 338.296L160.182 332.774L160.253 332.667L160.36 332.596L160.467 332.525L160.538 332.418L160.61 332.311L160.716 332.24L160.824 332.168L160.894 332.062L161.251 331.955L161.607 331.883L161.678 331.527L161.785 331.171L161.892 331.1L161.963 330.993L159.114 330.815C157.214 330.696 155.374 330.577 153.593 330.458C151.812 330.34 149.022 329.805 145.223 328.855C141.424 327.905 137.328 326.48 132.935 324.58C128.542 322.68 124.268 320.423 120.112 317.811C115.957 315.198 112.953 313.025 111.101 311.291C109.273 309.581 106.898 307.158 103.977 304.023C101.081 300.864 98.5636 297.622 96.4265 294.297C94.2894 290.972 92.2475 287.136 90.3006 282.789L87.344 276.305L87.1659 275.771L86.9878 275.236L86.881 274.88L86.8097 274.524L87.344 274.595L87.8783 274.702L91.7962 275.236C94.4084 275.593 98.5044 275.711 104.084 275.593C109.665 275.474 113.523 275.236 115.66 274.88C117.797 274.524 119.103 274.286 119.578 274.168L120.29 273.989L121.181 273.811L122.071 273.633L122.142 273.526L122.249 273.455L122.357 273.384L122.427 273.277L121.715 273.099L121.003 272.921L120.29 272.743L119.578 272.564L118.866 272.386C118.391 272.268 117.56 272.03 116.372 271.674C115.185 271.317 111.98 270.011 106.756 267.755C101.532 265.498 97.3764 263.301 94.2894 261.164C91.1948 259.02 88.2441 256.675 85.4563 254.145C82.6781 251.58 79.6271 248.278 76.3025 244.241C72.9783 240.203 70.0103 235.512 67.3981 230.168C64.7863 224.824 62.8273 219.718 61.5212 214.849C60.2203 210.008 59.3621 205.059 58.9571 200.063L58.3156 192.582L58.6718 192.653L59.028 192.76L59.3841 192.938L59.7403 193.116L60.0965 193.294L60.4527 193.472L65.9734 195.966C69.6541 197.629 74.2249 199.054 79.6862 200.241C85.1478 201.429 88.4125 202.082 89.4811 202.201L91.0839 202.379H94.2894L94.2186 202.272L94.1114 202.201L94.0045 202.13L93.9333 202.023L93.8624 201.916L93.7552 201.845L93.6483 201.773L93.5771 201.666L93.2209 201.488L92.8647 201.31L92.7939 201.203L92.6867 201.132L92.5798 201.061L92.5086 200.954L92.1524 200.776L91.7962 200.598L91.7253 200.491C91.6541 200.443 90.6329 199.683 88.6619 198.211C86.7146 196.714 84.6727 194.779 82.5356 192.403C80.3986 190.028 78.2615 187.534 76.1244 184.922C73.9834 182.303 72.0765 179.502 70.4256 176.549C68.7637 173.581 67.0063 169.804 65.1542 165.22C63.3259 160.66 61.9368 156.064 60.9869 151.432C60.0374 146.801 59.5031 142.229 59.3841 137.716C59.2655 133.203 59.3841 129.344 59.7403 126.137C60.0965 122.931 60.8088 119.308 61.8774 115.271C62.9459 111.233 64.4896 106.958 66.5077 102.445L69.5352 95.6759L69.7133 95.1415L69.8913 94.6071L69.9986 94.5358L70.0694 94.429L70.1407 94.3221L70.2475 94.2508L70.3547 94.3221L70.4256 94.429L70.4968 94.5358L70.6037 94.6071L70.7109 94.6784L70.7818 94.7852L70.853 94.8921L70.9599 94.9634L71.138 95.3196L71.3161 95.6759L71.4233 95.7472L71.4941 95.8541L76.3025 101.198C79.5081 104.761 83.3075 108.739 87.7002 113.133C92.0933 117.527 94.527 119.807 95.0018 119.974C95.4769 120.163 96.0703 120.71 96.7827 121.612C97.495 122.491 99.8697 124.593 103.906 127.918C107.943 131.244 113.226 135.103 119.756 139.497C126.286 143.891 133.528 148.226 141.483 152.501C149.438 156.776 157.986 160.636 167.128 164.08C176.27 167.524 182.681 169.78 186.361 170.849C190.042 171.918 196.334 173.283 205.239 174.946C214.143 176.609 220.851 177.678 225.362 178.153C229.874 178.628 232.961 178.901 234.623 178.972L237.116 179.043L237.045 178.509L236.938 177.974L236.226 173.521C235.751 170.552 235.514 166.396 235.514 161.052C235.514 155.708 235.929 150.779 236.76 146.266C237.591 141.753 238.838 137.181 240.5 132.55C242.162 127.918 243.789 124.201 245.38 121.399C246.995 118.62 249.108 115.449 251.72 111.886C254.332 108.324 257.715 104.642 261.871 100.842C266.026 97.0415 270.775 93.6569 276.118 90.6881C281.46 87.7193 286.388 85.4627 290.899 83.919C295.411 82.3753 299.21 81.3656 302.297 80.8907C305.384 80.4158 306.927 80.1425 306.927 80.0713V80.0713Z" fill="#F7F7F7"/>
</g>
<defs>
<filter id="filter0_d_9_22" x="39" y="80" width="403" height="329" filterUnits="userSpaceOnUse" color-interpolation-filters="sRGB">
<feFlood flood-opacity="0" result="BackgroundImageFix"/>
<feColorMatrix in="SourceAlpha" type="matrix" values="0 0 0 0 0 0 0 0 0 0 0 0 0 0 0 0 0 0 127 0" result="hardAlpha"/>
<feOffset dy="4"/>
<feGaussianBlur stdDeviation="2"/>
<feComposite in2="hardAlpha" operator="out"/>
<feColorMatrix type="matrix" values="0 0 0 0 0 0 0 0 0 0 0 0 0 0 0 0 0 0 0.25 0"/>
<feBlend mode="normal" in2="BackgroundImageFix" result="effect1_dropShadow_9_22"/>
<feBlend mode="normal" in="SourceGraphic" in2="effect1_dropShadow_9_22" result="shape"/>
</filter>
<linearGradient id="paint0_linear_9_22" x1="5.17632" y1="7.8485" x2="566.779" y2="295.183" gradientUnits="userSpaceOnUse">
<stop stop-color="#00B5DD"/>
<stop offset="0.510417" stop-color="#7003DD"/>
<stop offset="1" stop-color="#A30092"/>
</linearGradient>
</defs>
</svg>
